<svg width="28" height="22" viewBox="0 0 28 22" fill="none" xmlns="http://www.w3.org/2000/svg">
<path d="M26.2708 4.83984H1.01478C0.442783 4.83984 -0.0412173 5.41184 0.00278269 6.02784L0.882783 19.9318C0.882783 21.0758 1.85078 21.9998 2.95078 21.9998H24.2908C25.4348 21.9998 26.3588 21.1198 26.4028 19.9758L27.2828 5.98384C27.3268 5.41184 26.8428 4.83984 26.2708 4.83984Z" fill="#C3C3C3"/>
<path d="M25.3465 4.048V3.168C25.3905 2.42 24.7745 1.76 23.9825 1.76H11.6625L10.9145 0.132C10.8705 0.0440001 10.7825 0 10.6505 0H4.35853C4.00653 0 3.69853 0.308 3.69853 0.66V1.804H3.25853C2.51053 1.804 1.89453 2.464 1.89453 3.212V4.092H25.3465V4.048Z" fill="#C3C3C3"/>
</svg>
