<svg width="20" height="20" viewBox="0 0 20 20" fill="none" xmlns="http://www.w3.org/2000/svg">
<path d="M0.457046 0.0585966C0.248784 0.0577981 0.079748 0.222139 0.0805694 0.424615C0.0812816 0.62604 0.249867 0.788737 0.457046 0.787943H3.1339L4.96092 12.5113C4.98894 12.6894 5.14655 12.8209 5.33186 12.8208H15.8926C17.13 12.8208 18.2156 12.0041 18.5279 10.84L19.8622 5.86914C20.1535 4.78344 19.2972 3.70533 18.1431 3.70533H4.34638L3.82872 0.370789C3.80195 0.191622 3.64401 0.0586935 3.45778 0.0585966H0.457046ZM4.45988 4.43467H18.1431C18.8247 4.43467 19.309 5.04498 19.1369 5.68613L17.8026 10.657C17.5755 11.5035 20.0368 4.09173 19.1369 4.09173L4.34638 4.43467L5.65297 12.0915L4.45988 4.43467Z" fill="#92B621"/>
<path d="M5.32964 12.0918C5.32964 12.0918 4.87504 12.0867 4.4106 12.3125C3.94616 12.5383 3.45557 13.0102 3.45557 13.9138C3.45557 14.8127 3.94616 15.2894 4.4106 15.5152C4.87504 15.7409 5.32964 15.7358 5.32964 15.7358H18.8302C19.0363 15.7352 19.2032 15.5729 19.2039 15.3725C19.2032 15.1721 19.0363 15.0099 18.8302 15.0092H5.32964C5.32964 15.0092 5.03388 15.0027 4.74832 14.8639C4.46276 14.725 4.20575 14.4701 4.20575 13.9138C4.20575 13.3586 4.46276 13.1026 4.74832 12.9638C5.03388 12.825 5.32964 12.8212 5.32964 12.8212V12.0918Z" fill="#92B621"/>
<path d="M8.33241 16.2988C7.30132 16.2988 6.45557 17.1184 6.45557 18.1208C6.45557 19.1233 7.30132 19.9429 8.33241 19.9429C9.3635 19.9429 10.2065 19.1233 10.2065 18.1208C10.2065 17.1184 9.3635 16.2988 8.33241 16.2988ZM8.33241 17.0255C8.95817 17.0255 9.45631 17.5125 9.45631 18.1208C9.45631 18.7292 8.95817 19.2135 8.33241 19.2135C7.70665 19.2135 7.20575 18.7292 7.20575 18.1208C7.20575 17.5125 7.70665 17.0255 8.33241 17.0255Z" fill="#92B621"/>
<path d="M15.2387 16.2988C14.2076 16.2988 13.3618 17.1184 13.3618 18.1208C13.3618 19.1233 14.2076 19.9429 15.2387 19.9429C16.2698 19.9429 17.1127 19.1233 17.1127 18.1208C17.1127 17.1184 16.2698 16.2988 15.2387 16.2988ZM15.2387 17.0255C15.8644 17.0255 16.3626 17.5125 16.3626 18.1208C16.3626 18.7292 15.8644 19.2135 15.2387 19.2135C14.6129 19.2135 14.112 18.7292 14.112 18.1208C14.112 17.5125 14.6129 17.0255 15.2387 17.0255Z" fill="#92B621"/>
<ellipse cx="8.21673" cy="18.2572" rx="1.71429" ry="1.33333" fill="#92B621"/>
<ellipse cx="15.3192" cy="18.2572" rx="1.37143" ry="1.33333" fill="#92B621"/>
</svg>
