<svg width="28" height="26" viewBox="0 0 28 26" fill="none" xmlns="http://www.w3.org/2000/svg">
<path d="M25.9352 0H2.06442C0.909151 0 0 0.890635 0 1.94625V17.6195C0 18.6751 0.910551 19.5657 2.06442 19.5657H10.0447L14 26L17.9553 19.5657H25.9356C27.0908 19.5657 28 18.6751 28 17.6195V1.94625C28 0.857111 27.0891 0 25.9352 0ZM22.3642 15.079H5.63543C5.28544 15.079 5.00516 14.8147 5.00516 14.4848C5.00516 14.1548 5.28543 13.8906 5.63543 13.8906H22.3656C22.7156 13.8906 22.9959 14.1548 22.9959 14.4848C22.9945 14.8147 22.7142 15.079 22.3642 15.079ZM22.3642 10.3938H5.63543C5.28544 10.3938 5.00516 10.1296 5.00516 9.79963C5.00516 9.46966 5.28543 9.20543 5.63543 9.20543H22.3656C22.7156 9.20543 22.9959 9.46966 22.9959 9.79963C22.9945 10.1296 22.7142 10.3938 22.3642 10.3938ZM22.3642 5.74069H5.63543C5.28544 5.74069 5.00516 5.47646 5.00516 5.14649C5.00516 4.81652 5.28543 4.5523 5.63543 4.5523H22.3656C22.7156 4.5523 22.9959 4.81652 22.9959 5.14649C22.9945 5.47646 22.7142 5.74069 22.3642 5.74069Z" fill="#C3C3C3"/>
</svg>
