<svg width="22" height="22" viewBox="0 0 22 22" fill="none" xmlns="http://www.w3.org/2000/svg">
<path d="M10.7535 5.37114C10.6268 5.34815 10.7043 5.28262 10.7535 5.37114V5.37114Z" fill="#ECECEC"/>
<path d="M11.501 5.3699C11.55 5.28184 11.6274 5.34714 11.501 5.3699V5.3699Z" fill="#ECECEC"/>
<path d="M18.9233 1.7604C16.9071 -2.14601 12.4557 1.24284 11.2146 4.25876C10.323 1.8034 6.13858 -1.51809 3.8037 1.07385C2.63822 2.36763 2.69961 4.36291 3.93683 5.57576C5.64999 7.2549 9.13794 6.29887 11.1231 5.91674C11.1415 5.89444 11.1578 5.87122 11.1742 5.84776C13.9854 7.48804 21.2156 6.22346 18.9233 1.7604ZM4.79996 3.21812C4.77858 2.60054 5.51755 1.77121 6.33195 1.69717C7.69563 1.67418 10.1034 4.20105 10.7529 5.37113C9.33568 5.11522 4.87124 5.62129 4.79996 3.21812ZM11.5004 5.36975C12.1506 4.20013 14.5563 1.67418 15.9198 1.69717C16.7342 1.77121 17.4734 2.60054 17.4518 3.21812C17.3803 5.62106 12.9174 5.11453 11.5004 5.36975Z" fill="#ECECEC"/>
<path d="M21.8136 7.28471C21.8136 8.2205 21.11 8.99534 20.2041 9.1103C20.1283 9.1195 20.0524 9.1241 19.9742 9.1241H2.27006C2.19188 9.1241 2.11601 9.1195 2.04013 9.1103C1.13423 8.99534 0.430664 8.2205 0.430664 7.28471C0.430664 6.27074 1.25609 5.44531 2.27006 5.44531H19.9742C20.9882 5.44531 21.8136 6.27074 21.8136 7.28471Z" fill="white"/>
<path d="M20.2045 9.11035V13.4927H12.9619V9.12415H19.9746C20.0528 9.12415 20.1287 9.11955 20.2045 9.11035Z" fill="#ECECEC"/>
<path d="M20.2035 17.1719V20.1609C20.2035 21.6163 19.001 22.0003 18.3642 22.0003H12.9609V17.1719H20.2035Z" fill="#ECECEC"/>
<path d="M9.28265 17.1719V22.0003H3.87943C2.42401 22.0003 2.04004 20.7978 2.04004 20.1609V17.1719H9.28265Z" fill="#ECECEC"/>
<path d="M9.28265 9.12415V13.4927H2.04004V9.11035C2.11591 9.11955 2.19179 9.12415 2.26996 9.12415H9.28265Z" fill="#ECECEC"/>
<path d="M20.204 13.4916V17.1704H12.9614V21.9988H9.28265V17.1704H2.04004V13.4916H9.28265V9.12305H12.9614V13.4916H20.204Z" fill="white"/>
<path opacity="0.1" d="M20.204 9.11035V10.4945C20.1259 10.5014 20.05 10.5037 19.9741 10.5037H2.26996C2.19179 10.5037 2.11591 10.5014 2.04004 10.4968V9.11035C2.11591 9.11955 2.19179 9.12415 2.26996 9.12415H19.9741C20.0523 9.12415 20.1282 9.11955 20.204 9.11035Z" fill="#1D1D1B"/>
</svg>
