<svg width="20" height="20" viewBox="0 0 20 20" fill="none" xmlns="http://www.w3.org/2000/svg">
<mask id="mask0_624_2074" style="mask-type:luminance" maskUnits="userSpaceOnUse" x="0" y="0" width="20" height="20">
<path d="M10 18.3334C11.0945 18.3348 12.1786 18.1198 13.1898 17.701C14.201 17.2821 15.1195 16.6675 15.8925 15.8926C16.6674 15.1196 17.282 14.2011 17.7009 13.1899C18.1197 12.1787 18.3347 11.0946 18.3333 10.0001C18.3347 8.90554 18.1197 7.82152 17.7009 6.81029C17.282 5.79907 16.6674 4.88058 15.8925 4.10759C15.1195 3.33265 14.201 2.7181 13.1898 2.29922C12.1786 1.88034 11.0945 1.6654 10 1.66675C8.90545 1.6654 7.82142 1.88034 6.8102 2.29922C5.79898 2.7181 4.88048 3.33265 4.1075 4.10759C3.33256 4.88058 2.718 5.79907 2.29913 6.81029C1.88025 7.82152 1.66531 8.90554 1.66666 10.0001C1.66531 11.0946 1.88025 12.1787 2.29913 13.1899C2.718 14.2011 3.33256 15.1196 4.1075 15.8926C4.88048 16.6675 5.79898 17.2821 6.8102 17.701C7.82142 18.1198 8.90545 18.3348 10 18.3334Z" fill="white" stroke="white" stroke-width="2" stroke-linejoin="round"/>
<path fill-rule="evenodd" clip-rule="evenodd" d="M10 15.4168C10.2763 15.4168 10.5412 15.3071 10.7366 15.1117C10.9319 14.9164 11.0417 14.6514 11.0417 14.3752C11.0417 14.0989 10.9319 13.8339 10.7366 13.6386C10.5412 13.4432 10.2763 13.3335 10 13.3335C9.72374 13.3335 9.45879 13.4432 9.26344 13.6386C9.06809 13.8339 8.95834 14.0989 8.95834 14.3752C8.95834 14.6514 9.06809 14.9164 9.26344 15.1117C9.45879 15.3071 9.72374 15.4168 10 15.4168Z" fill="black"/>
<path d="M10 5V11.6667" stroke="black" stroke-width="2" stroke-linecap="round" stroke-linejoin="round"/>
</mask>
<g mask="url(#mask0_624_2074)">
<path d="M0 0H20V20H0V0Z" fill="#4C4B47"/>
</g>
</svg>
