<svg width="20" height="16" viewBox="0 0 20 16" fill="none" xmlns="http://www.w3.org/2000/svg">
<path d="M17.333 0.666992H2.66634C1.65801 0.666992 0.842174 1.49199 0.842174 2.50033L0.833008 13.5003C0.833008 14.5087 1.65801 15.3337 2.66634 15.3337H17.333C18.3413 15.3337 19.1663 14.5087 19.1663 13.5003V2.50033C19.1663 1.49199 18.3413 0.666992 17.333 0.666992ZM16.9663 4.56283L10.4855 8.61449C10.1922 8.79783 9.80717 8.79783 9.51384 8.61449L3.03301 4.56283C2.94109 4.51123 2.8606 4.44152 2.79641 4.35791C2.73221 4.2743 2.68565 4.17854 2.65954 4.07642C2.63342 3.97429 2.6283 3.86793 2.64448 3.76377C2.66067 3.65961 2.69782 3.55982 2.75368 3.47043C2.80955 3.38105 2.88297 3.30393 2.96951 3.24374C3.05604 3.18355 3.15389 3.14154 3.25713 3.12027C3.36037 3.09899 3.46685 3.09888 3.57013 3.11994C3.67342 3.14101 3.77135 3.18281 3.85801 3.24283L9.99967 7.08366L16.1413 3.24283C16.228 3.18281 16.3259 3.14101 16.4292 3.11994C16.5325 3.09888 16.639 3.09899 16.7422 3.12027C16.8455 3.14154 16.9433 3.18355 17.0298 3.24374C17.1164 3.30393 17.1898 3.38105 17.2457 3.47043C17.3015 3.55982 17.3387 3.65961 17.3549 3.76377C17.371 3.86793 17.3659 3.97429 17.3398 4.07642C17.3137 4.17854 17.2671 4.2743 17.2029 4.35791C17.1388 4.44152 17.0583 4.51123 16.9663 4.56283Z" fill="#4C4B47"/>
</svg>
