<svg width="24" height="24" viewBox="0 0 24 24" fill="none" xmlns="http://www.w3.org/2000/svg">
<path d="M21.8667 24H19.7333C18.5604 24 17.6 23.0396 17.6 21.8667V19.7333C17.6 18.5604 18.5604 17.6 19.7333 17.6H21.8667C23.0396 17.6 24 18.5604 24 19.7333V21.8667C24 23.0396 23.0396 24 21.8667 24ZM13.0667 24H10.9333C9.76043 24 8.8 23.0396 8.8 21.8667V19.7333C8.8 18.5604 9.76043 17.6 10.9333 17.6H13.0667C14.2396 17.6 15.2 18.5604 15.2 19.7333V21.8667C15.2 23.0396 14.2396 24 13.0667 24ZM4.26667 24H2.13333C0.960427 24 0 23.0396 0 21.8667V19.7333C0 18.5604 0.960427 17.6 2.13333 17.6H4.26667C5.43957 17.6 6.4 18.5604 6.4 19.7333V21.8667C6.4 23.0396 5.43957 24 4.26667 24ZM21.8667 15.2H19.7333C18.5604 15.2 17.6 14.2396 17.6 13.0667V10.9333C17.6 9.76043 18.5604 8.8 19.7333 8.8H21.8667C23.0396 8.8 24 9.76043 24 10.9333V13.0667C24 14.2396 23.0396 15.2 21.8667 15.2ZM13.0667 15.2H10.9333C9.76043 15.2 8.8 14.2396 8.8 13.0667V10.9333C8.8 9.76043 9.76043 8.8 10.9333 8.8H13.0667C14.2396 8.8 15.2 9.76043 15.2 10.9333V13.0667C15.2 14.2396 14.2396 15.2 13.0667 15.2ZM4.26667 15.2H2.13333C0.960427 15.2 0 14.2396 0 13.0667V10.9333C0 9.76043 0.960427 8.8 2.13333 8.8H4.26667C5.43957 8.8 6.4 9.76043 6.4 10.9333V13.0667C6.4 14.2396 5.43957 15.2 4.26667 15.2ZM21.8667 6.4H19.7333C18.5604 6.4 17.6 5.43957 17.6 4.26667V2.13333C17.6 0.960427 18.5604 0 19.7333 0H21.8667C23.0396 0 24 0.960427 24 2.13333V4.26667C24 5.43957 23.0396 6.4 21.8667 6.4ZM13.0667 6.4H10.9333C9.76043 6.4 8.8 5.43957 8.8 4.26667V2.13333C8.8 0.960427 9.76043 0 10.9333 0H13.0667C14.2396 0 15.2 0.960427 15.2 2.13333V4.26667C15.2 5.43957 14.2396 6.4 13.0667 6.4ZM4.26667 6.4H2.13333C0.960427 6.4 0 5.43957 0 4.26667V2.13333C0 0.960427 0.960427 0 2.13333 0H4.26667C5.43957 0 6.4 0.960427 6.4 2.13333V4.26667C6.4 5.43957 5.43957 6.4 4.26667 6.4Z" fill="#C3C3C3"/>
</svg>
