<svg width="27" height="27" viewBox="0 0 27 27" fill="none" xmlns="http://www.w3.org/2000/svg">
<g clip-path="url(#clip0_371_1501)">
<path d="M2.86186 4.90927C3.99153 4.90927 4.90732 3.99349 4.90732 2.86381C4.90732 1.73414 3.99153 0.818359 2.86186 0.818359C1.73219 0.818359 0.816406 1.73414 0.816406 2.86381C0.816406 3.99349 1.73219 4.90927 2.86186 4.90927Z" fill="#C3C3C3"/>
<path d="M16.3619 4.90927C17.4915 4.90927 18.4073 3.99349 18.4073 2.86381C18.4073 1.73414 17.4915 0.818359 16.3619 0.818359C15.2322 0.818359 14.3164 1.73414 14.3164 2.86381C14.3164 3.99349 15.2322 4.90927 16.3619 4.90927Z" fill="#C3C3C3"/>
<path d="M10.6353 26.1808C11.765 26.1808 12.6808 25.265 12.6808 24.1353C12.6808 23.0056 11.765 22.0898 10.6353 22.0898C9.50562 22.0898 8.58984 23.0056 8.58984 24.1353C8.58984 25.265 9.50562 26.1808 10.6353 26.1808Z" fill="#C3C3C3"/>
<path d="M24.1353 26.1808C25.265 26.1808 26.1808 25.265 26.1808 24.1353C26.1808 23.0056 25.265 22.0898 24.1353 22.0898C23.0056 22.0898 22.0898 23.0056 22.0898 24.1353C22.0898 25.265 23.0056 26.1808 24.1353 26.1808Z" fill="#C3C3C3"/>
<path d="M20.3374 23.0279C20.1778 22.8683 19.9201 22.8683 19.7606 23.0279C19.601 23.1874 19.601 23.4451 19.7606 23.6047L19.8792 23.7274H13.4688C13.4892 23.8624 13.5015 23.9974 13.5015 24.1365C13.5015 24.2756 13.4892 24.4106 13.4688 24.5456H19.8792L19.7606 24.6642C19.601 24.8238 19.601 25.0815 19.7606 25.241C19.8383 25.3229 19.9406 25.3638 20.0469 25.3638C20.1533 25.3638 20.2556 25.3229 20.3374 25.2451L21.1556 24.427C21.3151 24.2674 21.3151 24.0097 21.1556 23.8501L20.3374 23.0279Z" fill="#C3C3C3"/>
<path d="M17.9717 7.55626L16.7076 8.49308C16.1267 8.12081 15.4763 7.84672 14.7767 7.69535L14.5394 6.13672H12.4572L12.224 7.69535C11.5244 7.84672 10.874 8.12081 10.2931 8.49308L9.02899 7.55626L7.55626 9.02899L8.49308 10.2931C8.12081 10.874 7.84672 11.5285 7.69126 12.224L6.13672 12.4572V14.5394L7.69535 14.7726C7.84672 15.4722 8.12081 16.1226 8.49717 16.7035L7.56035 17.9676L9.03308 19.4404L10.2972 18.5035C10.8781 18.8758 11.5285 19.1499 12.2281 19.3013L12.4613 20.864H14.5435L14.7767 19.3054C15.4763 19.154 16.1267 18.8799 16.7076 18.5076L17.9717 19.4444L19.4444 17.9717L18.5076 16.7076C18.8799 16.1267 19.154 15.4763 19.3094 14.7767L20.864 14.5435V12.4613L19.3054 12.2281C19.154 11.5285 18.8799 10.8781 18.5035 10.2972L19.4404 9.03308L17.9717 7.55626ZM13.5004 16.3108C11.9499 16.3108 10.6899 15.0508 10.6899 13.5004C10.6899 11.9499 11.9499 10.6899 13.5004 10.6899C15.0508 10.6899 16.3108 11.9499 16.3108 13.5004C16.3108 15.0508 15.0549 16.3108 13.5004 16.3108Z" fill="#C3C3C3"/>
<path d="M6.83697 23.0276C6.67743 22.8681 6.4197 22.8681 6.26016 23.0276C6.10061 23.1872 6.10061 23.4449 6.26016 23.6044L6.37879 23.7272H6.13743C3.42925 23.7272 1.22834 21.5262 1.22834 18.8181C1.22834 16.3922 2.9997 14.3753 5.31925 13.9826V13.1562C2.5497 13.5572 0.410156 15.9381 0.410156 18.8181C0.410156 21.9762 2.97925 24.5453 6.13743 24.5453H6.37879L6.26016 24.664C6.10061 24.8235 6.10061 25.0813 6.26016 25.2408C6.33788 25.3226 6.44016 25.3635 6.54652 25.3635C6.65288 25.3635 6.75516 25.3226 6.83697 25.2449L7.65516 24.4267C7.8147 24.2672 7.8147 24.0094 7.65516 23.8499L6.83697 23.0276Z" fill="#C3C3C3"/>
<path d="M12.1058 3.27215L11.9871 3.39079C11.8276 3.55033 11.8276 3.80806 11.9871 3.96761C12.0649 4.04942 12.1671 4.09033 12.2735 4.09033C12.3799 4.09033 12.4821 4.04942 12.5639 3.9717L13.3821 3.15352C13.4189 3.1167 13.4517 3.0717 13.4721 3.01852C13.513 2.92033 13.513 2.80579 13.4721 2.70761C13.4517 2.65852 13.423 2.61352 13.3821 2.57261L12.5639 1.75442C12.4044 1.59488 12.1467 1.59488 11.9871 1.75442C11.8276 1.91397 11.8276 2.1717 11.9871 2.33124L12.1058 2.45397H5.69531C5.71577 2.58897 5.72804 2.72397 5.72804 2.86306C5.72804 3.00215 5.71577 3.13715 5.69531 3.27215H12.1058Z" fill="#C3C3C3"/>
<path d="M21.6826 13.0159V13.8422C24.4521 13.4413 26.5917 11.0604 26.5917 8.1804C26.5917 5.02222 24.0226 2.45312 20.8644 2.45312H19.1953C19.2158 2.58813 19.228 2.72313 19.228 2.86222C19.228 3.00131 19.2158 3.13631 19.1953 3.27131H20.8644C23.5726 3.27131 25.7735 5.47222 25.7735 8.1804C25.7735 10.6063 24.0021 12.6231 21.6826 13.0159Z" fill="#C3C3C3"/>
</g>
<defs>
<clipPath id="clip0_371_1501">
<rect width="27" height="27" fill="white"/>
</clipPath>
</defs>
</svg>
