<svg width="24" height="24" viewBox="0 0 24 24" fill="none" xmlns="http://www.w3.org/2000/svg">
<mask id="mask0_331_1674" style="mask-type:alpha" maskUnits="userSpaceOnUse" x="0" y="0" width="24" height="24">
<circle cx="12" cy="12" r="12" fill="#D9D9D9"/>
</mask>
<g mask="url(#mask0_331_1674)">
<path d="M29.5016 -8.63867H-5.4948C-6.53996 -8.63346 -7.38542 -7.78796 -7.39062 -6.74285V24.0696C-7.38889 25.1147 -6.54165 25.962 -5.4948 25.9637H29.5016C30.5451 25.9619 31.3905 25.12 31.3975 24.0765V-6.74303C31.3957 -7.78992 30.5485 -8.63521 29.5016 -8.63867ZM-6.58191 -6.74285C-6.58191 -7.10396 -6.4031 -7.44076 -6.10623 -7.64387C-5.92567 -7.76193 -5.7156 -7.82443 -5.50031 -7.82617H29.5015C30.1004 -7.82617 30.5865 -7.34181 30.5883 -6.74283V-3.9147H10.326C9.83124 -3.9147 9.35382 -3.73067 8.98577 -3.40257L7.07431 -1.69248C6.85209 -1.49456 6.56391 -1.38518 6.26529 -1.38518H-6.58183L-6.58191 -6.74285ZM29.503 25.1754H-5.49525C-5.78518 25.1754 -6.06294 25.0591 -6.26783 24.8525C-6.47095 24.6459 -6.58553 24.3663 -6.58206 24.0764V-0.569366H6.27038C6.76518 -0.571101 7.24261 -0.753392 7.61065 -1.08323L9.52212 -2.78808C9.74434 -2.98599 10.0325 -3.09537 10.3311 -3.09537H30.588V24.0766C30.5863 24.6756 30.1019 25.1617 29.5012 25.1634L29.503 25.1754ZM-3.54902 -6.13352C-4.19138 -6.13352 -4.76951 -5.74637 -5.01605 -5.15263C-5.26084 -4.55889 -5.12542 -3.87658 -4.67056 -3.42174C-4.21745 -2.96863 -3.53341 -2.83321 -2.94141 -3.07799C-2.34767 -3.32452 -1.96052 -3.90265 -1.96052 -4.54501C-1.96052 -5.42177 -2.67231 -6.13352 -3.54902 -6.13352ZM-3.54902 -3.76547C-3.86326 -3.76547 -4.148 -3.95471 -4.26951 -4.24636C-4.38931 -4.53803 -4.32333 -4.87312 -4.09938 -5.09707C-3.87715 -5.31929 -3.54209 -5.387 -3.2504 -5.26548C-2.95873 -5.14569 -2.76951 -4.86096 -2.76951 -4.54499C-2.77125 -4.11617 -3.11847 -3.76721 -3.54902 -3.76547ZM0.871108 -6.13352C0.228753 -6.13352 -0.34938 -5.74637 -0.595913 -5.15263C-0.840704 -4.55889 -0.705287 -3.87658 -0.250429 -3.42174C0.202682 -2.96863 0.886726 -2.83321 1.47873 -3.07799C2.07246 -3.32452 2.45961 -3.90265 2.45961 -4.54501C2.45961 -4.96689 2.29295 -5.36968 1.99433 -5.66825C1.69745 -5.96513 1.29297 -6.13352 0.871108 -6.13352ZM0.871108 -3.76547C0.556873 -3.76547 0.27213 -3.95471 0.15062 -4.24636C0.0308285 -4.53803 0.0968022 -4.87312 0.320757 -5.09707C0.54298 -5.31929 0.878047 -5.387 1.16974 -5.26548C1.4614 -5.14569 1.65236 -4.86096 1.65236 -4.54499C1.65236 -4.33839 1.56903 -4.14047 1.42319 -3.99463C1.27736 -3.84706 1.07771 -3.76547 0.871108 -3.76547ZM6.88311 -4.54498C6.88311 -5.18734 6.49769 -5.76721 5.90395 -6.01201C5.31022 -6.25853 4.62791 -6.12138 4.17306 -5.66825C3.71822 -5.21341 3.5828 -4.5311 3.82931 -3.93737C4.0741 -3.34363 4.65398 -2.95821 5.29634 -2.95821C6.17136 -2.95995 6.88138 -3.67 6.88311 -4.54498ZM5.29631 -3.76547C4.98034 -3.76547 4.6956 -3.95471 4.57582 -4.24636C4.45429 -4.53803 4.522 -4.87312 4.74422 -5.09707C4.96818 -5.31929 5.30325 -5.387 5.59494 -5.26548C5.88486 -5.14569 6.07582 -4.86096 6.07582 -4.54499C6.07582 -4.11443 5.72686 -3.76547 5.29631 -3.76547ZM12.003 0.295284C8.8832 0.29702 5.89364 1.53662 3.68875 3.74319C1.48217 5.94804 0.244309 8.94097 0.246042 12.0592C0.246042 15.179 1.48564 18.1703 3.69222 20.3752C5.89706 22.58 8.88822 23.8179 12.0082 23.8179C15.1282 23.8179 18.1193 22.5783 20.3242 20.3735C22.5291 18.1669 23.7687 15.1757 23.7687 12.0575C23.7669 8.93768 22.5273 5.94457 20.3208 3.73968C18.1142 1.53484 15.123 0.295284 12.003 0.295284ZM19.7408 4.31093C21.1956 5.75884 22.2095 7.59044 22.6661 9.59226C21.5428 8.38044 19.6157 7.42213 17.1954 6.84919C16.626 4.42559 15.6607 2.51066 14.4593 1.38742V1.38568C16.4645 1.84053 18.2996 2.85444 19.7527 4.31102L19.7408 4.31093ZM12.003 23.0105C10.1888 23.0105 8.56893 20.7396 7.69569 17.4514V17.4496C9.11582 17.7135 10.5585 17.842 12.003 17.8385C13.4474 17.8351 14.8901 17.6996 16.3103 17.434C15.437 20.743 13.8172 23.0105 12.003 23.0105ZM12.003 17.0296C10.4856 17.0348 8.97173 16.8803 7.48564 16.5695C6.87453 13.5921 6.87453 10.5211 7.48564 7.54333C8.97178 7.23256 10.4856 7.0763 12.003 7.07804C13.5186 7.0763 15.0308 7.23081 16.5168 7.53986C16.8258 9.02599 16.9803 10.5416 16.9768 12.0607C16.9803 13.5746 16.8275 15.0868 16.5203 16.5696C15.0341 16.8804 13.5203 17.0348 12.003 17.0296ZM6.6052 16.3439C3.31702 15.4758 1.04964 13.8543 1.04964 12.04C1.04964 10.2258 3.31702 8.606 6.60875 7.73275C6.34139 9.15462 6.20598 10.5973 6.20424 12.0452C6.20597 13.4862 6.34131 14.9255 6.6052 16.3439ZM12.003 1.10253C13.8085 1.10253 15.43 3.37684 16.2946 6.65808C13.4474 6.14071 10.5306 6.14071 7.68351 6.65808C8.56373 3.37857 10.18 1.11453 12.003 1.10253ZM17.3972 7.75008C20.6906 8.62333 22.9563 10.2432 22.9563 12.0574C22.9563 13.8716 20.6889 15.4914 17.4008 16.3647V16.3629C17.6664 14.9445 17.8018 13.5035 17.8053 12.0608C17.8035 10.6147 17.6663 9.17022 17.3972 7.75008ZM9.52564 1.39408C8.31382 2.51733 7.36764 4.44444 6.79822 6.85586C4.37462 7.42529 2.45449 8.39057 1.33111 9.59195H1.33284C1.79813 7.59715 2.812 5.77248 4.25991 4.3244C5.70782 2.87475 7.53244 1.86111 9.52564 1.39408ZM1.32786 14.5208C2.45111 15.7326 4.37822 16.6857 6.79497 17.2604C7.36791 19.684 8.33489 21.6041 9.53457 22.7275C7.53631 22.2639 5.70818 21.2483 4.25858 19.7987C2.8072 18.3473 1.79315 16.519 1.32786 14.5208ZM14.4754 22.7274C15.6872 21.6007 16.6369 19.6771 17.2115 17.2603C19.6351 16.6909 21.55 15.7256 22.6733 14.5242V14.526C22.208 16.5208 21.1941 18.3472 19.7462 19.7966C18.2966 21.2463 16.4718 22.2604 14.4754 22.7274Z" fill="white"/>
</g>
</svg>
