<svg width="27" height="18" viewBox="0 0 27 18" fill="none" xmlns="http://www.w3.org/2000/svg">
<path d="M19 7.75C21.075 7.75 22.7375 6.075 22.7375 4C22.7375 1.925 21.075 0.25 19 0.25C16.925 0.25 15.25 1.925 15.25 4C15.25 6.075 16.925 7.75 19 7.75ZM9 7.75C11.075 7.75 12.7375 6.075 12.7375 4C12.7375 1.925 11.075 0.25 9 0.25C6.925 0.25 5.25 1.925 5.25 4C5.25 6.075 6.925 7.75 9 7.75ZM9 10.25C6.0875 10.25 0.25 11.7125 0.25 14.625V16.5C0.25 17.1875 0.8125 17.75 1.5 17.75H16.5C17.1875 17.75 17.75 17.1875 17.75 16.5V14.625C17.75 11.7125 11.9125 10.25 9 10.25ZM19 10.25C18.6375 10.25 18.225 10.275 17.7875 10.3125C17.8125 10.325 17.825 10.35 17.8375 10.3625C19.2625 11.4 20.25 12.7875 20.25 14.625V16.5C20.25 16.9375 20.1625 17.3625 20.025 17.75H26.5C27.1875 17.75 27.75 17.1875 27.75 16.5V14.625C27.75 11.7125 21.9125 10.25 19 10.25Z" fill="#C3C3C3"/>
</svg>
