<svg width="26" height="26" viewBox="0 0 26 26" fill="none" xmlns="http://www.w3.org/2000/svg">
<path d="M2.88889 26C2.09444 26 1.41459 25.7174 0.849333 25.1521C0.284074 24.5868 0.000962963 23.9065 0 23.1111V2.88889C0 2.09444 0.283111 1.41459 0.849333 0.849333C1.41556 0.284074 2.09541 0.000962963 2.88889 0H23.1111C23.9056 0 24.5859 0.283111 25.1521 0.849333C25.7183 1.41556 26.001 2.09541 26 2.88889V23.1111C26 23.9056 25.7174 24.5859 25.1521 25.1521C24.5868 25.7183 23.9065 26.001 23.1111 26H2.88889ZM7.22222 20.2222H14.4444C14.8537 20.2222 15.197 20.0836 15.4743 19.8062C15.7517 19.5289 15.8899 19.1861 15.8889 18.7778C15.8879 18.3695 15.7493 18.0267 15.4729 17.7493C15.1965 17.472 14.8537 17.3333 14.4444 17.3333H7.22222C6.81296 17.3333 6.47015 17.472 6.19378 17.7493C5.91741 18.0267 5.77874 18.3695 5.77778 18.7778C5.77681 19.1861 5.91548 19.5294 6.19378 19.8077C6.47207 20.086 6.81489 20.2241 7.22222 20.2222ZM7.22222 14.4444H18.7778C19.187 14.4444 19.5303 14.3058 19.8077 14.0284C20.085 13.7511 20.2232 13.4083 20.2222 13C20.2213 12.5917 20.0826 12.2489 19.8062 11.9716C19.5299 11.6942 19.187 11.5556 18.7778 11.5556H7.22222C6.81296 11.5556 6.47015 11.6942 6.19378 11.9716C5.91741 12.2489 5.77874 12.5917 5.77778 13C5.77681 13.4083 5.91548 13.7516 6.19378 14.0299C6.47207 14.3082 6.81489 14.4464 7.22222 14.4444ZM7.22222 8.66667H18.7778C19.187 8.66667 19.5303 8.528 19.8077 8.25067C20.085 7.97333 20.2232 7.63052 20.2222 7.22222C20.2213 6.81393 20.0826 6.47111 19.8062 6.19378C19.5299 5.91644 19.187 5.77778 18.7778 5.77778H7.22222C6.81296 5.77778 6.47015 5.91644 6.19378 6.19378C5.91741 6.47111 5.77874 6.81393 5.77778 7.22222C5.77681 7.63052 5.91548 7.97381 6.19378 8.25211C6.47207 8.53041 6.81489 8.66859 7.22222 8.66667Z" fill="#C3C3C3"/>
</svg>
