<svg width="20" height="20" viewBox="0 0 20 20" fill="none" xmlns="http://www.w3.org/2000/svg">
<mask id="mask0_398_1660" style="mask-type:luminance" maskUnits="userSpaceOnUse" x="0" y="0" width="20" height="20">
<path d="M10.0003 18.3337C11.0949 18.335 12.1789 18.1201 13.1901 17.7012C14.2014 17.2823 15.1198 16.6678 15.8928 15.8928C16.6678 15.1198 17.2823 14.2014 17.7012 13.1901C18.1201 12.1789 18.335 11.0949 18.3337 10.0003C18.335 8.90579 18.1201 7.82176 17.7012 6.81054C17.2823 5.79931 16.6678 4.88082 15.8928 4.10783C15.1198 3.3329 14.2014 2.71834 13.1901 2.29946C12.1789 1.88059 11.0949 1.66565 10.0003 1.667C8.90579 1.66565 7.82176 1.88059 6.81054 2.29946C5.79931 2.71834 4.88082 3.3329 4.10783 4.10783C3.3329 4.88082 2.71834 5.79931 2.29946 6.81054C1.88059 7.82176 1.66565 8.90579 1.667 10.0003C1.66565 11.0949 1.88059 12.1789 2.29946 13.1901C2.71834 14.2014 3.3329 15.1198 4.10783 15.8928C4.88082 16.6678 5.79931 17.2823 6.81054 17.7012C7.82176 18.1201 8.90579 18.335 10.0003 18.3337Z" fill="white" stroke="white" stroke-width="2" stroke-linejoin="round"/>
<path fill-rule="evenodd" clip-rule="evenodd" d="M10.0007 15.4173C10.2769 15.4173 10.5419 15.3076 10.7372 15.1122C10.9326 14.9169 11.0423 14.6519 11.0423 14.3757C11.0423 14.0994 10.9326 13.8344 10.7372 13.6391C10.5419 13.4437 10.2769 13.334 10.0007 13.334C9.72438 13.334 9.45943 13.4437 9.26408 13.6391C9.06873 13.8344 8.95898 14.0994 8.95898 14.3757C8.95898 14.6519 9.06873 14.9169 9.26408 15.1122C9.45943 15.3076 9.72438 15.4173 10.0007 15.4173Z" fill="black"/>
<path d="M10 5V11.6667" stroke="black" stroke-width="2" stroke-linecap="round" stroke-linejoin="round"/>
</mask>
<g mask="url(#mask0_398_1660)">
<path d="M0 0H20V20H0V0Z" fill="#4C4B47"/>
</g>
</svg>
