<svg width="26" height="27" viewBox="0 0 26 27" fill="none" xmlns="http://www.w3.org/2000/svg">
<path fill-rule="evenodd" clip-rule="evenodd" d="M4.59182 27H22.6651C23.0203 27 23.3438 26.8546 23.579 26.6212C23.8131 26.3878 23.9589 26.064 23.9589 25.7098V23.1775H4.61768C4.86115 23.4191 5.04817 23.7018 5.17873 24.0068C5.32341 24.3469 5.39633 24.714 5.3975 25.0811C5.3975 25.4494 5.32576 25.8153 5.17873 26.1543V26.1555C5.04347 26.4663 4.84821 26.7549 4.59182 27ZM2.52524 4.88517C2.36645 4.88517 2.23707 4.75615 2.23707 4.59781C2.23707 4.43947 2.36645 4.31045 2.52524 4.31045H12.1182C12.277 4.31045 12.4063 4.43947 12.4063 4.59781C12.4063 4.75615 12.277 4.88517 12.1182 4.88517H2.52524ZM2.52524 7.85259C2.36645 7.85259 2.23707 7.72357 2.23707 7.56523C2.23707 7.40689 2.36645 7.27787 2.52524 7.27787H12.1182C12.277 7.27787 12.4063 7.40689 12.4063 7.56523C12.4063 7.72357 12.277 7.85259 12.1182 7.85259H2.52524ZM2.52524 10.8212C2.36645 10.8212 2.23707 10.6922 2.23707 10.5338C2.23707 10.3755 2.36645 10.2465 2.52524 10.2465H12.1182C12.277 10.2465 12.4063 10.3755 12.4063 10.5338C12.4063 10.6922 12.277 10.8212 12.1182 10.8212H2.52524ZM2.52524 13.7886C2.36645 13.7886 2.23707 13.6596 2.23707 13.5012C2.23707 13.3429 2.36645 13.2139 2.52524 13.2139H12.1182C12.277 13.2139 12.4063 13.3429 12.4063 13.5012C12.4063 13.6596 12.277 13.7886 12.1182 13.7886H2.52524ZM2.52524 16.7572C2.36645 16.7572 2.23707 16.6282 2.23707 16.4698C2.23707 16.3115 2.36645 16.1825 2.52524 16.1825H12.1182C12.277 16.1825 12.4063 16.3115 12.4063 16.4698C12.4063 16.6282 12.277 16.7572 12.1182 16.7572H2.52524ZM20.2083 4.36331C18.6051 4.42196 17.1584 5.09403 16.0988 6.15197C14.9885 7.25918 14.3015 8.78982 14.3015 10.4799C14.3015 12.17 14.9884 13.6996 16.0988 14.8079C17.1585 15.8647 18.6053 16.5367 20.2083 16.5966V22.6042L3.68028 22.603C3.5215 22.603 3.39211 22.732 3.39211 22.8904C3.39211 23.0123 3.46857 23.1167 3.57678 23.159C4.09666 23.3842 4.45423 23.7771 4.64829 24.231C4.76356 24.5007 4.82119 24.7916 4.82119 25.0813C4.82119 25.371 4.76356 25.6607 4.64829 25.9293C4.46598 26.3527 4.13783 26.721 3.66148 26.9497C2.73582 26.8078 1.90425 26.3691 1.2691 25.7346C0.485744 24.9534 0 23.8779 0 22.6932V0.946537C0 0.686154 0.107034 0.450416 0.278758 0.277976C0.450481 0.106734 0.688081 0 0.9492 0H19.0354C19.3577 0 19.6506 0.131364 19.8635 0.343649C20.0764 0.555942 20.2081 0.847997 20.2081 1.16937L20.2083 4.36331ZM20.0471 9.8629C19.9813 9.90864 19.9401 9.96259 19.9401 10.0142V14.0338C19.9401 14.0842 19.9813 14.1394 20.0471 14.1851C20.1436 14.252 20.2812 14.2942 20.4388 14.2942C20.5964 14.2942 20.734 14.2531 20.8305 14.1851C20.8964 14.1394 20.9364 14.0854 20.9364 14.0338V10.0142C20.9364 9.96377 20.8952 9.90981 20.8305 9.8629C20.734 9.79604 20.5964 9.75499 20.4388 9.75499C20.2824 9.75499 20.1436 9.79604 20.0471 9.8629ZM19.365 10.0142V14.0338C19.365 14.2848 19.5002 14.5041 19.719 14.6554C19.9072 14.7856 20.1624 14.8677 20.4388 14.8677C20.7152 14.8677 20.9704 14.7868 21.1586 14.6554C21.3774 14.503 21.5127 14.2836 21.5127 14.0338V10.0142C21.5127 9.7632 21.3774 9.54387 21.1586 9.39257C20.9704 9.26238 20.7152 9.18028 20.4388 9.18028C20.1624 9.18028 19.9072 9.26121 19.719 9.39257C19.5002 9.54387 19.365 9.76321 19.365 10.0142ZM21.3104 8.18918C21.5338 7.96751 21.6715 7.66021 21.6715 7.32125C21.6715 6.98228 21.5338 6.675 21.3104 6.45331C21.0881 6.23046 20.7799 6.09324 20.44 6.09324C20.1001 6.09324 19.7919 6.23047 19.5696 6.45331C19.3461 6.67499 19.2085 6.98228 19.2085 7.32125C19.2085 7.66021 19.3461 7.9675 19.5696 8.18918C19.7919 8.41203 20.1001 8.54926 20.44 8.54926C20.7787 8.54808 21.0869 8.41085 21.3104 8.18918ZM20.4388 7.97454C20.62 7.97454 20.7834 7.90182 20.9022 7.78336C21.021 7.6649 21.094 7.50187 21.094 7.32123C21.094 7.14059 21.021 6.97758 20.9022 6.8591C20.7835 6.74064 20.62 6.66792 20.4388 6.66792C20.2577 6.66792 20.0942 6.74064 19.9754 6.8591C19.8566 6.97756 19.7837 7.14059 19.7837 7.32123C19.7837 7.50187 19.8566 7.66488 19.9754 7.78336C20.0942 7.90065 20.2577 7.97454 20.4388 7.97454ZM20.4388 16.0251C21.9749 16.0251 23.3652 15.4047 24.371 14.4007C25.3778 13.3967 26 12.0103 26 10.4796C26 8.94775 25.3778 7.56138 24.371 6.55845C23.3641 5.55564 21.9739 4.93398 20.4388 4.93398C18.9027 4.93398 17.5124 5.55444 16.5067 6.55845C15.4998 7.56126 14.8776 8.9488 14.8776 10.4796C14.8776 12.0114 15.4998 13.3977 16.5067 14.4007C17.5123 15.4047 18.9026 16.0251 20.4388 16.0251Z" fill="#C3C3C3"/>
</svg>
