<svg width="19" height="23" viewBox="0 0 19 23" fill="none" xmlns="http://www.w3.org/2000/svg">
<path d="M8.66137 22.7718C8.81024 22.918 9.01057 23 9.21924 23H9.27523C9.48391 23 9.68423 22.918 9.83311 22.7718C10.1363 22.474 17.274 15.4129 18.3602 9.95272C18.5743 8.82743 18.5319 7.66834 18.2361 6.56172C17.9402 5.45509 17.3987 4.42943 16.6516 3.56107C15.7637 2.44999 14.6371 1.55299 13.3553 0.936536C12.0736 0.320087 10.6695 0 9.24724 0C7.82494 0 6.42089 0.320087 5.13913 0.936536C3.85737 1.55299 2.73078 2.44999 1.84285 3.56107C1.09581 4.42943 0.554229 5.45509 0.258406 6.56172C-0.0374161 7.66834 -0.0798592 8.82743 0.134236 9.95272C1.22044 15.4129 8.35813 22.474 8.66137 22.7718ZM3.07368 4.57146C3.8122 3.64235 4.75092 2.89191 5.81985 2.37609C6.88879 1.86027 8.06036 1.59237 9.24724 1.59237C10.4341 1.59237 11.6057 1.86027 12.6746 2.37609C13.7436 2.89191 14.6823 3.64235 15.4208 4.57146C16.0167 5.2587 16.4501 6.07146 16.6885 6.94928C16.927 7.82711 16.9645 8.7474 16.7982 9.64171C15.969 13.8116 10.9115 19.3596 9.24724 21.0947C7.58255 19.3604 2.5263 13.8155 1.69629 9.6417C1.52999 8.74739 1.56747 7.8271 1.80594 6.94928C2.04441 6.07146 2.47774 5.2587 3.07368 4.57146Z" fill="white"/>
<path d="M9.24462 13.3219C10.1119 13.3218 10.9597 13.0646 11.6808 12.5828C12.4018 12.1009 12.9639 11.4161 13.2957 10.6148C13.6276 9.81356 13.7144 8.93188 13.5452 8.08128C13.376 7.23069 12.9584 6.44936 12.3451 5.83611C11.7319 5.22286 10.9506 4.80523 10.1 4.63603C9.24936 4.46682 8.36769 4.55364 7.56643 4.88552C6.76517 5.21739 6.08032 5.7794 5.59847 6.50049C5.11662 7.22158 4.85941 8.06936 4.85938 8.93662C4.86067 10.0993 5.3231 11.2139 6.14521 12.036C6.96732 12.8581 8.08198 13.3206 9.24462 13.3219ZM9.24462 6.14414C9.79696 6.14417 10.3369 6.308 10.7961 6.61489C11.2554 6.92179 11.6133 7.35797 11.8246 7.86828C12.0359 8.37859 12.0912 8.94011 11.9834 9.48183C11.8756 10.0236 11.6096 10.5211 11.219 10.9117C10.8284 11.3022 10.3308 11.5682 9.78906 11.6759C9.24733 11.7836 8.68582 11.7283 8.17554 11.5168C7.66526 11.3054 7.22912 10.9475 6.92229 10.4882C6.61546 10.0289 6.45171 9.48896 6.45175 8.93662C6.45264 8.19621 6.74718 7.48639 7.27077 6.96288C7.79435 6.43937 8.50421 6.14492 9.24462 6.14414Z" fill="white"/>
</svg>
