<svg width="21" height="21" viewBox="0 0 21 21" fill="none" xmlns="http://www.w3.org/2000/svg">
<path d="M16.1356 20.6279C12.3857 20.6279 8.42605 18.7922 5.12209 15.4891C2.05916 12.4262 0.24304 8.77962 0.00905751 5.22008C-0.0752843 3.94031 0.433355 2.67271 1.36973 1.82821C2.15549 1.11904 2.95502 0.634502 3.74591 0.385779C4.58933 0.122427 5.51883 0.471842 6.00774 1.23695C7.14551 3.0176 7.8366 4.67773 8.12148 6.31297C8.2282 6.92316 8.03369 7.56348 7.60251 8.02563L6.49832 9.20557C6.38213 9.3295 6.36836 9.51713 6.46389 9.6617C7.04653 10.5456 7.72473 11.3761 8.47949 12.1309C9.4718 13.1232 10.5777 13.9709 11.7672 14.65C11.8962 14.724 12.0675 14.7 12.1828 14.5924L13.2061 13.6336C13.6683 13.2007 14.3086 13.0062 14.9214 13.1129C16.5575 13.3987 18.2159 14.0897 19.9932 15.2241C20.7635 15.7155 21.1112 16.6544 20.8392 17.5073C20.7247 17.8653 20.5612 18.2276 20.3538 18.5831C19.6946 19.7139 18.494 20.4618 17.1437 20.5832C16.8098 20.6133 16.4733 20.6279 16.1359 20.6279H16.1356ZM4.31901 1.1895C4.2166 1.1895 4.11332 1.20413 4.01263 1.23597C3.34479 1.4451 2.65628 1.86682 1.96689 2.48906C1.23192 3.1526 0.831721 4.15181 0.898831 5.16223C1.11829 8.50497 2.84215 11.9493 5.75276 14.86C9.16689 18.2741 13.2902 20.0384 17.0641 19.6967C18.1279 19.6012 19.0703 19.0168 19.5857 18.1355C19.7604 17.836 19.8973 17.5339 19.992 17.237C20.1417 16.7688 19.9455 16.2499 19.5152 15.9753C17.8395 14.9055 16.287 14.2566 14.7688 13.9907C14.4305 13.9322 14.0751 14.0415 13.816 14.2842L12.7919 15.2438C12.3943 15.6164 11.791 15.6913 11.3254 15.4254C10.0671 14.7068 8.89829 13.8117 7.85022 12.7626C7.05241 11.9656 6.33636 11.0878 5.72014 10.1539C5.39741 9.66423 5.44903 9.02478 5.84751 8.59877L6.9517 7.41883C7.19355 7.16063 7.30285 6.80519 7.24431 6.46783C6.9801 4.95053 6.33032 3.39697 5.25711 1.71789C5.04367 1.38225 4.68477 1.1895 4.31901 1.1895Z" fill="white"/>
<path d="M20.4801 10.9094C20.2339 10.9094 20.0351 10.7097 20.0351 10.4645C20.0351 5.1853 15.7397 0.889884 10.4606 0.889884C10.2144 0.889884 10.0156 0.690216 10.0156 0.444942C10.0156 0.198797 10.2153 0 10.4606 0C16.231 0 20.9259 4.69486 20.9259 10.4653C20.925 10.7098 20.7262 10.9094 20.4801 10.9094Z" fill="white"/>
<path d="M16.8586 10.909C16.6125 10.909 16.4137 10.7094 16.4137 10.4641C16.4137 7.18173 13.7432 4.51098 10.4606 4.51098C10.2144 4.51098 10.0156 4.31131 10.0156 4.06604C10.0156 3.81989 10.2153 3.62109 10.4606 3.62109C14.2345 3.62109 17.3042 6.69107 17.3042 10.4648C17.3034 10.7092 17.1046 10.9088 16.8584 10.9088L16.8586 10.909Z" fill="white"/>
</svg>
