<svg width="1178" height="249" viewBox="0 0 1178 249" fill="none" xmlns="http://www.w3.org/2000/svg">
<path d="M1090.35 182.927C1090.35 193.54 1090.98 200.353 1092.21 203.304C1093.44 206.285 1095.95 207.753 1099.72 207.753C1104.05 207.753 1106.82 206.146 1108.07 202.864C1109.31 199.611 1109.91 191.902 1109.91 179.775V0.287109H1178V163.075C1178 181.53 1177.36 194.492 1176.05 201.969C1174.76 209.421 1170.94 217.123 1164.59 224.978C1158.21 232.856 1149.84 238.819 1139.43 242.897C1129.03 246.93 1116.76 249 1102.65 249C1087.02 249 1073.23 246.569 1061.26 241.755C1049.28 236.935 1040.36 230.678 1034.41 222.97C1028.5 215.23 1024.99 207.073 1023.92 198.493C1022.84 189.941 1022.28 171.897 1022.28 144.398V0.287109H1090.35V182.927ZM298.46 50.0615H253.048V97.2168H295.553V144.507H253.048V199.179H302.996V248.938H184.952V0.287109H298.46V50.0615ZM404.037 0.262695C423.975 0.262703 440.526 3.98839 453.683 11.459C466.823 18.9231 475.377 27.8034 479.377 38.0674C483.373 48.334 485.36 63.2489 485.36 82.7998V93.1016H417.3V71.4453C417.3 57.805 416.651 49.265 415.342 45.7949C414.06 42.359 410.989 40.6475 406.126 40.6475C401.932 40.6475 399.087 42.1434 397.563 45.0596C396.048 48.011 395.307 55.5931 395.307 67.7598V182.278C395.307 193.008 396.048 200.044 397.563 203.421C399.087 206.805 402.099 208.494 406.613 208.494C411.587 208.494 414.95 206.603 416.73 202.763C418.511 198.941 419.409 191.448 419.409 180.347V152.046H405.64V115.813H485.36V248.938H442.575L436.284 226.785C431.663 234.154 425.807 239.685 418.74 243.371C411.666 247.048 403.337 248.877 393.748 248.877C382.303 248.877 371.59 246.352 361.608 241.291C351.63 236.224 344.059 229.983 338.889 222.506C333.706 215.045 330.464 207.206 329.173 199.003C327.884 190.806 327.234 178.494 327.234 162.087V91.21C327.234 68.3957 328.585 51.8473 331.267 41.5371C333.987 31.2151 341.708 21.7547 354.483 13.1436C367.256 4.5569 383.772 0.262695 404.037 0.262695ZM631.844 50.0615H586.412V97.2168H628.915V144.507H586.412V199.179H636.382V248.938H518.336V0.287109H631.844V50.0615ZM757.617 112.251V0.287109H814.543V248.938H754.884L719.459 135.899V248.938H662.541V0.287109H719.459L757.617 112.251ZM1005.08 248.938H935.516L931.856 204.256H907.522L903.427 248.938H833.053L867.765 0.287109H966.149L1005.08 248.938ZM48.1875 0C80.2971 1.06548e-05 102.051 1.17978 113.416 3.53125C124.802 5.89464 134.069 11.9202 141.24 21.5723C148.408 31.2433 151.975 46.7102 151.975 67.8955C151.975 87.2519 149.438 100.236 144.392 106.882C139.32 113.537 129.354 117.538 114.472 118.879C127.951 122.061 137.005 126.309 141.644 131.648C146.251 136.96 149.15 141.841 150.302 146.29C151.42 150.739 151.975 162.999 151.975 183.089V248.651H88.75V166.018C88.75 152.717 87.6714 144.467 85.4414 141.315C83.2387 138.133 77.4483 136.536 68.0684 136.536V248.651H0V0H48.1875ZM919.717 55.7188C912.777 103.346 908.412 138.158 906.651 160.166H930.083C926.617 132.009 923.167 97.1943 919.717 55.7188ZM68.0684 97.8193C75.722 97.8193 81.074 96.8179 84.1562 94.8564C87.2239 92.8514 88.75 86.3626 88.75 75.4072V61.7256C88.75 53.863 87.2866 48.6814 84.3252 46.2246C81.3422 43.7869 75.9386 42.5606 68.0684 42.5605V97.8193Z" fill="white"/>
<path d="M1090.35 182.927C1090.35 193.54 1090.98 200.353 1092.21 203.304C1093.44 206.285 1095.95 207.753 1099.72 207.753C1104.05 207.753 1106.82 206.146 1108.07 202.864C1109.31 199.611 1109.91 191.902 1109.91 179.775V0.287109H1178V163.075C1178 181.53 1177.36 194.492 1176.05 201.969C1174.76 209.421 1170.94 217.123 1164.59 224.978C1158.21 232.856 1149.84 238.819 1139.43 242.897C1129.03 246.93 1116.76 249 1102.65 249C1087.02 249 1073.23 246.569 1061.26 241.755C1049.28 236.935 1040.36 230.678 1034.41 222.97C1028.5 215.23 1024.99 207.073 1023.92 198.493C1022.84 189.941 1022.28 171.897 1022.28 144.398V0.287109H1090.35V182.927ZM298.46 50.0615H253.048V97.2168H295.553V144.507H253.048V199.179H302.996V248.938H184.952V0.287109H298.46V50.0615ZM404.037 0.262695C423.975 0.262703 440.526 3.98839 453.683 11.459C466.823 18.9231 475.377 27.8034 479.377 38.0674C483.373 48.334 485.36 63.2489 485.36 82.7998V93.1016H417.3V71.4453C417.3 57.805 416.651 49.265 415.342 45.7949C414.06 42.359 410.989 40.6475 406.126 40.6475C401.932 40.6475 399.087 42.1434 397.563 45.0596C396.048 48.011 395.307 55.5931 395.307 67.7598V182.278C395.307 193.008 396.048 200.044 397.563 203.421C399.087 206.805 402.099 208.494 406.613 208.494C411.587 208.494 414.95 206.603 416.73 202.763C418.511 198.941 419.409 191.448 419.409 180.347V152.046H405.64V115.813H485.36V248.938H442.575L436.284 226.785C431.663 234.154 425.807 239.685 418.74 243.371C411.666 247.048 403.337 248.877 393.748 248.877C382.303 248.877 371.59 246.352 361.608 241.291C351.63 236.224 344.059 229.983 338.889 222.506C333.706 215.045 330.464 207.206 329.173 199.003C327.884 190.806 327.234 178.494 327.234 162.087V91.21C327.234 68.3957 328.585 51.8473 331.267 41.5371C333.987 31.2151 341.708 21.7547 354.483 13.1436C367.256 4.5569 383.772 0.262695 404.037 0.262695ZM631.844 50.0615H586.412V97.2168H628.915V144.507H586.412V199.179H636.382V248.938H518.336V0.287109H631.844V50.0615ZM757.617 112.251V0.287109H814.543V248.938H754.884L719.459 135.899V248.938H662.541V0.287109H719.459L757.617 112.251ZM1005.08 248.938H935.516L931.856 204.256H907.522L903.427 248.938H833.053L867.765 0.287109H966.149L1005.08 248.938ZM48.1875 0C80.2971 1.06548e-05 102.051 1.17978 113.416 3.53125C124.802 5.89464 134.069 11.9202 141.24 21.5723C148.408 31.2433 151.975 46.7102 151.975 67.8955C151.975 87.2519 149.438 100.236 144.392 106.882C139.32 113.537 129.354 117.538 114.472 118.879C127.951 122.061 137.005 126.309 141.644 131.648C146.251 136.96 149.15 141.841 150.302 146.29C151.42 150.739 151.975 162.999 151.975 183.089V248.651H88.75V166.018C88.75 152.717 87.6714 144.467 85.4414 141.315C83.2387 138.133 77.4483 136.536 68.0684 136.536V248.651H0V0H48.1875ZM919.717 55.7188C912.777 103.346 908.412 138.158 906.651 160.166H930.083C926.617 132.009 923.167 97.1943 919.717 55.7188ZM68.0684 97.8193C75.722 97.8193 81.074 96.8179 84.1562 94.8564C87.2239 92.8514 88.75 86.3626 88.75 75.4072V61.7256C88.75 53.863 87.2866 48.6814 84.3252 46.2246C81.3422 43.7869 75.9386 42.5606 68.0684 42.5605V97.8193Z" fill="url(#paint0_linear_254_52)" fill-opacity="0.4"/>
<defs>
<linearGradient id="paint0_linear_254_52" x1="522.042" y1="75.4905" x2="515.81" y2="261.52" gradientUnits="userSpaceOnUse">
<stop stop-color="white" stop-opacity="0"/>
<stop offset="1"/>
</linearGradient>
</defs>
</svg>
